<svg width="2268" height="4032" xmlns="http://www.w3.org/2000/svg"><path d="M775 974 774 975 773 975 772 975 771 975 770 975 769 975 768 975 767 975 766 975 765 975 764 976 763 976 762 976 761 976 760 976 759 976 758 977 757 977 756 978 755 978 754 979 753 979 752 979 751 980 750 980 749 981 748 981 747 982 746 982 745 982 744 983 743 983 742 984 741 984 740 985 739 985 738 985 737 986 736 986 735 987 734 987 733 988 732 988 731 988 730 989 729 990 728 990 727 990 726 991 725 991 724 992 723 992 722 993 721 993 720 994 719 994 718 995 717 995 716 995 715 996 714 997 713 997 712 998 711 998 710 998 709 999 708 999 707 1000 706 1000 705 1001 704 1001 703 1001 702 1002 701 1003 700 1003 699 1004 698 1004 697 1004 696 1005 695 1005 694 1006 693 1006 692 1007 691 1007 690 1008 689 1008 688 1009 687 1009 686 1010 685 1010 684 1011 683 1011 682 1011 681 1012 680 1013 679 1013 678 1013 677 1014 676 1015 675 1015 674 1016 673 1016 672 1017 671 1017 670 1018 669 1018 668 1019 667 1020 666 1020 665 1020 664 1021 663 1021 662 1022 661 1023 660 1023 659 1024 658 1024 657 1025 656 1025 655 1026 654 1026 653 1027 652 1028 651 1028 650 1029 649 1029 648 1030 647 1031 646 1031 645 1032 644 1033 643 1033 642 1034 641 1035 640 1036 639 1037 638 1037 637 1038 636 1039 635 1040 634 1041 633 1042 632 1042 631 1043 630 1044 629 1045 628 1046 627 1047 626 1048 625 1049 624 1050 623 1051 622 1052 621 1053 620 1054 619 1055 618 1056 617 1057 616 1058 615 1059 614 1060 613 1061 612 1062 611 1063 611 1064 610 1065 609 1066 609 1067 609 1068 608 1069 608 1070 608 1071 607 1072 607 1073 607 1074 606 1075 606 1076 605 1077 605 1078 605 1079 604 1080 604 1081 604 1082 603 1083 603 1084 603 1085 602 1086 602 1087 602 1088 601 1089 601 1090 601 1091 600 1092 600 1093 599 1094 599 1095 599 1096 598 1097 598 1098 598 1099 597 1100 597 1101 597 1102 596 1103 596 1104 596 1105 595 1106 595 1107 595 1108 594 1109 594 1110 594 1111 593 1112 593 1113 593 1114 593 1115 592 1116 592 1117 592 1118 591 1119 591 1120 591 1121 590 1122 590 1123 590 1124 589 1125 589 1126 589 1127 588 1128 588 1129 588 1130 588 1131 587 1132 587 1133 587 1134 586 1135 586 1136 586 1137 586 1138 585 1139 585 1140 585 1141 584 1142 584 1143 584 1144 584 1145 583 1146 583 1147 583 1148 583 1149 582 1150 582 1151 582 1152 582 1153 581 1154 581 1155 581 1156 581 1157 580 1158 580 1159 580 1160 580 1161 579 1162 579 1163 579 1164 579 1165 578 1166 578 1167 578 1168 578 1169 578 1170 578 1171 577 1172 577 1173 577 1174 577 1175 576 1176 576 1177 576 1178 576 1179 576 1180 575 1181 575 1182 575 1183 575 1184 575 1185 574 1186 574 1187 574 1188 574 1189 574 1190 574 1191 575 1192 575 1193 575 1194 575 1195 575 1196 575 1197 575 1198 575 1199 575 1200 575 1201 575 1202 576 1203 576 1204 576 1205 576 1206 576 1207 576 1208 576 1209 576 1210 576 1211 577 1212 577 1213 577 1214 577 1215 577 1216 577 1217 577 1218 577 1219 577 1220 577 1221 577 1222 577 1223 577 1224 577 1225 578 1226 578 1227 578 1228 578 1229 578 1230 578 1231 578 1232 578 1233 579 1234 579 1235 579 1236 579 1237 579 1238 579 1239 579 1240 579 1241 579 1242 580 1243 580 1244 580 1245 580 1246 580 1247 580 1248 581 1249 581 1250 581 1251 581 1252 581 1253 581 1254 581 1255 582 1256 582 1257 582 1258 583 1259 583 1260 583 1261 584 1262 584 1263 584 1264 584 1265 585 1266 585 1267 585 1268 586 1269 586 1270 586 1271 587 1272 587 1273 587 1274 588 1275 588 1276 588 1277 589 1278 589 1279 589 1280 590 1281 590 1282 590 1283 591 1284 591 1285 591 1286 592 1287 592 1288 592 1289 593 1290 593 1291 593 1292 594 1293 594 1294 594 1295 594 1296 595 1297 595 1298 596 1299 596 1300 596 1301 597 1302 597 1303 598 1304 598 1305 598 1306 599 1307 599 1308 599 1309 600 1310 600 1311 600 1312 601 1313 601 1314 601 1315 602 1316 602 1317 602 1318 603 1319 603 1320 603 1321 604 1322 604 1323 605 1324 605 1325 605 1326 606 1327 606 1328 606 1329 607 1330 607 1331 608 1332 608 1333 608 1334 609 1335 609 1336 609 1337 610 1338 610 1339 610 1340 610 1341 611 1342 612 1343 612 1344 612 1345 613 1346 613 1347 614 1348 614 1349 614 1350 615 1351 615 1352 616 1353 616 1354 617 1355 617 1356 617 1357 618 1358 618 1359 619 1360 619 1361 619 1362 620 1363 620 1364 620 1365 621 1366 622 1367 622 1368 622 1369 623 1370 623 1371 624 1372 624 1373 624 1374 625 1375 625 1376 626 1377 626 1378 627 1379 627 1380 628 1381 628 1382 628 1383 629 1384 630 1385 630 1386 630 1387 631 1388 632 1389 632 1390 633 1391 633 1392 634 1393 635 1394 635 1395 636 1396 636 1397 637 1398 638 1399 638 1400 639 1401 640 1402 640 1403 641 1404 642 1405 642 1406 643 1407 643 1408 644 1409 645 1410 646 1411 646 1412 647 1413 648 1414 648 1415 649 1416 650 1417 651 1418 652 1419 653 1420 654 1421 654 1422 655 1423 656 1424 657 1425 658 1426 659 1427 659 1428 660 1429 661 1430 662 1431 663 1432 664 1433 665 1434 666 1435 667 1436 668 1437 669 1438 670 1439 671 1440 672 1441 673 1442 674 1443 674 1444 675 1445 676 1446 677 1447 678 1448 679 1449 680 1450 680 1451 681 1452 682 1453 683 1454 684 1455 685 1456 686 1457 687 1458 688 1459 689 1460 690 1461 690 1462 691 1463 692 1464 693 1465 694 1466 695 1467 696 1468 697 1469 698 1470 699 1471 700 1472 701 1473 702 1474 702 1475 703 1476 704 1477 705 1478 706 1479 707 1480 708 1481 709 1482 710 1483 711 1484 711 1485 712 1486 713 1487 714 1488 715 1489 715 1490 716 1491 717 1492 718 1493 719 1494 720 1495 720 1496 721 1497 722 1498 722 1499 723 1500 723 1501 724 1502 724 1503 724 1504 725 1505 725 1506 726 1507 726 1508 726 1509 727 1510 727 1511 728 1512 728 1513 728 1514 729 1515 729 1516 729 1517 730 1518 730 1519 730 1520 731 1521 731 1522 731 1523 732 1524 732 1525 732 1526 733 1527 733 1528 733 1529 734 1530 734 1531 734 1532 734 1533 735 1534 735 1535 735 1536 736 1537 736 1538 736 1539 737 1540 737 1541 737 1542 738 1543 738 1544 738 1545 738 1546 739 1547 739 1548 739 1549 740 1550 740 1551 740 1552 741 1553 741 1554 741 1555 741 1556 741 1557 742 1558 742 1559 742 1560 742 1561 743 1562 743 1563 743 1564 743 1565 743 1566 744 1567 744 1568 744 1569 744 1570 744 1571 744 1572 745 1573 745 1574 745 1575 745 1576 745 1577 745 1578 746 1579 746 1580 746 1581 746 1582 746 1583 746 1584 746 1585 746 1586 746 1587 746 1588 746 1589 746 1590 747 1591 747 1592 747 1593 747 1594 747 1595 747 1596 747 1597 747 1598 747 1599 747 1600 747 1601 747 1602 747 1603 747 1604 747 1605 747 1606 747 1607 747 1608 748 1609 748 1610 748 1611 748 1612 748 1613 748 1614 748 1615 748 1616 748 1617 748 1618 748 1619 748 1620 748 1621 748 1622 748 1623 748 1624 748 1625 748 1626 748 1627 748 1628 748 1629 748 1630 748 1631 748 1632 749 1633 749 1634 749 1635 750 1636 750 1637 750 1638 750 1639 750 1640 750 1641 750 1642 750 1643 750 1644 750 1645 750 1646 750 1647 750 1648 750 1649 750 1650 750 1651 751 1652 751 1653 751 1654 751 1655 751 1656 751 1657 751 1658 751 1659 751 1660 751 1661 751 1662 751 1663 751 1664 751 1665 751 1666 751 1667 751 1668 751 1669 752 1670 752 1671 752 1672 752 1673 752 1674 752 1675 753 1676 753 1677 753 1678 753 1679 754 1680 754 1681 754 1682 755 1683 755 1684 755 1685 756 1686 756 1687 756 1688 757 1689 757 1690 757 1691 758 1692 758 1693 759 1694 759 1695 760 1696 760 1697 761 1698 762 1699 762 1700 763 1701 763 1702 764 1703 765 1704 766 1705 766 1706 767 1707 767 1708 768 1709 769 1710 770 1711 770 1712 771 1713 772 1714 772 1715 773 1716 774 1717 775 1718 776 1719 777 1720 778 1721 779 1722 780 1723 781 1723 782 1724 783 1725 784 1726 785 1726 786 1727 787 1728 788 1728 789 1729 790 1730 791 1730 792 1731 793 1731 794 1732 795 1732 796 1733 797 1734 798 1734 799 1735 800 1735 801 1736 802 1736 803 1736 804 1737 805 1737 806 1738 807 1738 808 1739 809 1739 810 1740 811 1740 812 1740 813 1741 814 1741 815 1741 816 1742 817 1742 818 1742 819 1743 820 1743 821 1743 822 1743 823 1743 824 1744 825 1744 826 1744 827 1744 828 1744 829 1744 830 1744 831 1744 832 1745 833 1745 834 1745 835 1745 836 1745 837 1745 838 1745 839 1745 840 1745 841 1745 842 1745 843 1745 844 1745 845 1745 846 1745 847 1745 848 1745 849 1745 850 1745 851 1745 852 1745 853 1745 854 1744 855 1744 856 1744 857 1744 858 1744 859 1744 860 1744 861 1743 862 1743 863 1743 864 1743 865 1743 866 1743 867 1743 868 1743 869 1742 870 1741 871 1741 872 1741 873 1741 874 1741 875 1741 876 1741 877 1740 878 1740 879 1740 880 1739 881 1738 882 1738 883 1737 884 1737 885 1736 886 1735 887 1735 888 1734 889 1733 890 1733 891 1732 892 1731 893 1731 894 1730 895 1730 896 1729 897 1728 898 1727 899 1727 900 1726 901 1725 902 1724 903 1723 904 1723 905 1722 906 1721 907 1720 908 1719 909 1718 910 1717 911 1716 912 1715 913 1714 914 1713 915 1712 916 1711 917 1710 918 1709 919 1708 920 1707 921 1706 922 1705 923 1704 924 1703 924 1702 925 1701 926 1701 927 1700 927 1699 928 1698 929 1697 930 1696 930 1695 931 1694 932 1693 933 1692 933 1691 934 1690 935 1689 935 1688 936 1687 937 1686 938 1685 938 1684 939 1683 940 1682 940 1681 941 1680 942 1679 942 1678 943 1677 943 1676 944 1675 945 1674 945 1673 946 1672 946 1671 947 1670 948 1669 948 1668 949 1667 949 1666 950 1665 950 1664 951 1663 951 1662 952 1661 952 1660 953 1659 953 1658 954 1657 954 1656 954 1655 955 1654 956 1653 956 1652 956 1651 957 1650 957 1649 958 1648 958 1647 959 1646 959 1645 959 1644 960 1643 960 1642 960 1641 961 1640 962 1639 962 1638 962 1637 963 1636 963 1635 964 1634 964 1633 964 1632 965 1631 965 1630 965 1629 965 1628 965 1627 965 1626 965 1625 966 1624 966 1623 966 1622 966 1621 966 1620 966 1619 967 1618 967 1617 967 1616 967 1615 967 1614 968 1613 968 1612 968 1611 968 1610 968 1609 968 1608 969 1607 969 1606 969 1605 969 1604 969 1603 969 1602 969 1601 969 1600 969 1599 969 1598 969 1597 969 1596 970 1595 970 1594 970 1593 970 1592 970 1591 970 1590 970 1589 970 1588 970 1587 970 1586 970 1585 971 1584 971 1583 971 1582 971 1581 971 1580 971 1579 971 1578 971 1577 971 1576 971 1575 971 1574 971 1573 971 1572 971 1571 971 1570 971 1569 971 1568 971 1567 971 1566 971 1565 972 1564 972 1563 972 1562 972 1561 972 1560 972 1559 972 1558 973 1557 973 1556 973 1555 973 1554 973 1553 973 1552 973 1551 973 1550 974 1549 974 1548 974 1547 974 1546 974 1545 974 1544 974 1543 974 1542 975 1541 975 1540 975 1539 975 1538 975 1537 975 1536 976 1535 976 1534 976 1533 976 1532 976 1531 976 1530 976 1529 977 1528 977 1527 977 1526 977 1525 977 1524 977 1523 977 1522 978 1521 978 1520 978 1519 978 1518 978 1517 978 1516 978 1515 978 1514 979 1513 979 1512 979 1511 979 1510 979 1509 979 1508 980 1507 980 1506 980 1505 980 1504 980 1503 980 1502 980 1501 981 1500 981 1499 981 1498 981 1497 981 1496 981 1495 981 1494 981 1493 981 1492 982 1491 982 1490 982 1489 982 1488 982 1487 983 1486 983 1485 983 1484 983 1483 983 1482 983 1481 983 1480 984 1479 984 1478 984 1477 984 1476 984 1475 984 1474 984 1473 984 1472 985 1471 985 1470 985 1469 985 1468 985 1467 985 1466 986 1465 986 1464 986 1463 986 1462 986 1461 986 1460 986 1459 987 1458 987 1457 987 1456 987 1455 987 1454 988 1453 988 1452 988 1451 988 1450 988 1449 988 1448 989 1447 989 1446 989 1445 989 1444 989 1443 990 1442 990 1441 991 1440 991 1439 992 1438 993 1437 993 1436 994 1435 994 1434 995 1433 996 1432 996 1431 997 1430 998 1429 998 1428 999 1427 999 1426 1000 1425 1001 1424 1001 1423 1002 1422 1002 1421 1003 1420 1004 1419 1004 1418 1005 1417 1005 1416 1006 1415 1007 1414 1008 1413 1008 1412 1009 1411 1010 1410 1010 1409 1011 1408 1012 1407 1012 1406 1013 1405 1013 1404 1014 1403 1015 1402 1015 1401 1016 1400 1017 1399 1017 1398 1018 1397 1019 1396 1019 1395 1020 1394 1020 1393 1021 1392 1022 1391 1022 1390 1023 1389 1024 1388 1024 1387 1025 1386 1026 1385 1026 1384 1027 1383 1027 1382 1028 1381 1029 1380 1029 1379 1030 1378 1031 1377 1031 1376 1032 1375 1033 1374 1033 1373 1034 1372 1034 1371 1035 1370 1036 1369 1036 1368 1037 1367 1037 1366 1038 1365 1039 1364 1039 1363 1040 1362 1040 1361 1041 1360 1042 1359 1043 1358 1043 1357 1044 1356 1045 1355 1045 1354 1046 1353 1046 1352 1047 1351 1048 1350 1048 1349 1049 1348 1049 1347 1050 1346 1051 1345 1051 1344 1052 1343 1053 1342 1054 1341 1055 1340 1056 1339 1057 1338 1057 1337 1057 1336 1058 1335 1058 1334 1059 1333 1059 1332 1060 1331 1060 1330 1060 1329 1061 1328 1061 1327 1062 1326 1062 1325 1063 1324 1063 1323 1063 1322 1064 1321 1064 1320 1065 1319 1065 1318 1066 1317 1066 1316 1067 1315 1067 1314 1067 1313 1068 1312 1068 1311 1069 1310 1069 1309 1069 1308 1070 1307 1070 1306 1071 1305 1071 1304 1072 1303 1072 1302 1073 1301 1073 1300 1073 1299 1074 1298 1074 1297 1075 1296 1075 1295 1076 1294 1076 1293 1076 1292 1077 1291 1077 1290 1078 1289 1078 1288 1078 1287 1079 1286 1079 1285 1080 1284 1080 1283 1080 1282 1081 1281 1081 1280 1081 1279 1082 1278 1082 1277 1082 1276 1083 1275 1083 1274 1084 1273 1084 1272 1084 1271 1085 1270 1085 1269 1085 1268 1086 1267 1086 1266 1086 1265 1087 1264 1087 1263 1088 1262 1088 1261 1088 1260 1089 1259 1089 1258 1089 1257 1090 1256 1090 1255 1091 1254 1091 1253 1091 1252 1092 1251 1092 1250 1092 1249 1093 1248 1093 1247 1093 1246 1094 1245 1094 1244 1095 1243 1095 1242 1095 1241 1095 1240 1096 1239 1096 1238 1096 1237 1097 1236 1097 1235 1097 1234 1097 1233 1098 1232 1098 1231 1098 1230 1098 1229 1099 1228 1099 1227 1099 1226 1100 1225 1100 1224 1100 1223 1100 1222 1100 1221 1101 1220 1101 1219 1101 1218 1101 1217 1101 1216 1102 1215 1102 1214 1102 1213 1102 1212 1102 1211 1102 1210 1102 1209 1103 1208 1103 1207 1103 1206 1103 1205 1103 1204 1103 1203 1103 1202 1103 1201 1104 1200 1104 1199 1104 1198 1104 1197 1104 1196 1104 1195 1104 1194 1104 1193 1104 1192 1104 1191 1104 1190 1104 1189 1104 1188 1104 1187 1104 1186 1104 1185 1104 1184 1104 1183 1104 1182 1104 1181 1104 1180 1104 1179 1104 1178 1104 1177 1104 1176 1104 1175 1104 1174 1103 1173 1103 1172 1103 1171 1103 1170 1103 1169 1103 1168 1103 1167 1103 1166 1103 1165 1103 1164 1103 1163 1103 1162 1103 1161 1102 1160 1102 1159 1102 1158 1102 1157 1102 1156 1102 1155 1101 1154 1101 1153 1101 1152 1101 1151 1101 1150 1100 1149 1100 1148 1100 1147 1100 1146 1099 1145 1099 1144 1098 1143 1098 1142 1098 1141 1097 1140 1097 1139 1096 1138 1096 1137 1096 1136 1095 1135 1095 1134 1094 1133 1094 1132 1094 1131 1094 1130 1093 1129 1092 1128 1092 1127 1092 1126 1091 1125 1091 1124 1090 1123 1090 1122 1090 1121 1089 1120 1088 1119 1088 1118 1088 1117 1087 1116 1087 1115 1087 1114 1086 1113 1085 1112 1085 1111 1084 1110 1083 1109 1083 1108 1082 1107 1081 1106 1081 1105 1080 1104 1080 1103 1079 1102 1078 1101 1078 1100 1077 1099 1076 1098 1076 1097 1075 1096 1074 1095 1074 1094 1073 1093 1072 1092 1072 1091 1071 1090 1070 1089 1070 1088 1069 1087 1068 1086 1067 1085 1067 1084 1066 1083 1065 1082 1065 1081 1064 1080 1063 1079 1062 1078 1061 1077 1061 1076 1060 1075 1059 1074 1058 1073 1057 1072 1056 1071 1055 1070 1054 1069 1053 1068 1052 1067 1051 1066 1050 1065 1049 1064 1048 1063 1047 1063 1046 1062 1045 1061 1044 1060 1043 1059 1042 1058 1041 1057 1040 1057 1039 1056 1038 1055 1037 1054 1036 1054 1035 1053 1034 1052 1033 1051 1032 1050 1031 1050 1030 1049 1029 1048 1028 1047 1027 1046 1026 1046 1025 1045 1024 1044 1023 1043 1022 1043 1021 1042 1020 1041 1019 1040 1018 1040 1017 1039 1016 1038 1015 1038 1014 1037 1013 1036 1012 1036 1011 1035 1010 1034 1009 1034 1008 1033 1007 1032 1006 1032 1005 1031 1004 1030 1003 1030 1002 1029 1001 1028 1000 1028 999 1027 998 1027 997 1026 996 1025 995 1025 994 1024 993 1024 992 1023 991 1022 990 1022 989 1021 988 1021 987 1020 986 1019 985 1019 984 1018 983 1018 982 1017 981 1016 980 1016 979 1016 978 1015 977 1014 976 1014 975 1013 974 1013 973 1012 972 1012 971 1011 970 1011 969 1010 968 1009 967 1009 966 1008 965 1008 964 1007 963 1007 962 1006 961 1006 960 1006 959 1005 958 1004 957 1003 956 1003 955 1003 954 1003 953 1002 952 1002 951 1001 950 1001 949 1001 948 1000 947 1000 946 1000 945 999 944 999 943 999 942 998 941 998 940 998 939 997 938 997 937 996 936 996 935 996 934 995 933 995 932 995 931 994 930 994 929 994 928 993 927 993 926 993 925 992 924 992 923 992 922 991 921 991 920 991 919 990 918 990 917 990 916 990 915 989 914 989 913 989 912 988 911 988 910 988 909 987 908 987 907 987 906 987 905 986 904 986 903 986 902 986 901 985 900 985 899 985 898 985 897 984 896 984 895 984 894 984 893 984 892 983 891 983 890 983 889 983 888 982 887 982 886 982 885 982 884 982 883 981 882 981 881 981 880 981 879 981 878 981 877 980 876 980 875 980 874 980 873 980 872 979 871 979 870 979 869 979 868 979 867 979 866 978 865 978 864 978 863 978 862 978 861 978 860 978 859 978 858 978 857 977 856 977 855 977 854 977 853 977 852 977 851 977 850 977 849 977 848 976 847 976 846 976 845 976 844 976 843 976 842 976 841 976 840 976 839 975 838 975 837 975 836 975 835 975 834 975 833 975 832 975 831 975 830 975 829 975 828 975 827 975 826 975 825 975 824 974 823 974 822 974 821 974 820 974 819 974 818 974 817 974 816 974 815 974 814 974 813 974 812 974 811 974 810 974 809 974 808 974 807 974 806 974 805 974 804 974 803 974 802 974 801 974 800 974 799 974 798 974 797 974 796 974 795 974 794 974 793 974 792 974 791 974 790 974 789 974 788 974 787 974 786 974 785 974 784 974 783 974 782 974 781 974 780 974 779 974 778 974 777 974 776 974 1638 997 1637 998 1636 999 1635 1000 1634 1001 1633 1002 1632 1002 1631 1003 1630 1004 1629 1005 1628 1006 1627 1006 1626 1007 1625 1008 1624 1009 1623 1010 1622 1011 1621 1012 1620 1012 1619 1013 1618 1014 1617 1014 1616 1015 1615 1016 1614 1017 1613 1018 1612 1019 1611 1020 1610 1020 1609 1021 1608 1022 1607 1023 1606 1024 1605 1024 1604 1025 1603 1026 1602 1027 1601 1028 1600 1028 1599 1029 1598 1030 1597 1031 1596 1031 1595 1032 1594 1033 1593 1034 1592 1035 1591 1035 1590 1036 1589 1037 1588 1038 1587 1038 1586 1039 1585 1040 1584 1041 1583 1041 1582 1042 1581 1043 1580 1043 1579 1044 1578 1044 1578 1045 1577 1046 1576 1047 1576 1048 1576 1049 1575 1050 1574 1051 1574 1052 1573 1053 1573 1054 1572 1055 1572 1056 1571 1057 1571 1058 1570 1059 1569 1060 1569 1061 1568 1062 1568 1063 1567 1064 1566 1065 1566 1066 1565 1067 1565 1068 1564 1069 1564 1070 1563 1071 1563 1072 1562 1073 1561 1074 1561 1075 1560 1076 1560 1077 1559 1078 1558 1079 1558 1080 1557 1081 1557 1082 1556 1083 1556 1084 1555 1085 1555 1086 1554 1087 1553 1088 1553 1089 1552 1090 1552 1091 1551 1092 1551 1093 1550 1094 1550 1095 1549 1096 1548 1097 1548 1098 1547 1099 1547 1100 1546 1101 1545 1102 1545 1103 1544 1104 1544 1105 1543 1106 1543 1107 1542 1108 1542 1109 1541 1110 1540 1111 1540 1112 1539 1113 1539 1114 1538 1115 1537 1116 1537 1117 1536 1118 1536 1119 1535 1120 1535 1121 1535 1122 1535 1123 1535 1124 1535 1125 1535 1126 1535 1127 1535 1128 1535 1129 1535 1130 1534 1131 1534 1132 1534 1133 1534 1134 1533 1135 1533 1136 1533 1137 1532 1138 1532 1139 1531 1140 1531 1141 1530 1142 1530 1143 1530 1144 1529 1145 1529 1146 1528 1147 1528 1148 1527 1149 1527 1150 1527 1151 1526 1152 1526 1153 1525 1154 1525 1155 1525 1156 1524 1157 1524 1158 1523 1159 1523 1160 1522 1161 1522 1162 1522 1163 1521 1164 1521 1165 1520 1166 1520 1167 1520 1168 1519 1169 1519 1170 1518 1171 1518 1172 1517 1173 1517 1174 1517 1175 1516 1176 1516 1177 1515 1178 1515 1179 1514 1180 1514 1181 1514 1182 1513 1183 1513 1184 1513 1185 1513 1186 1512 1187 1512 1188 1512 1189 1512 1190 1511 1191 1511 1192 1511 1193 1511 1194 1510 1195 1510 1196 1510 1197 1510 1198 1509 1199 1509 1200 1509 1201 1509 1202 1508 1203 1508 1204 1508 1205 1508 1206 1508 1207 1507 1208 1507 1209 1507 1210 1507 1211 1506 1212 1506 1213 1506 1214 1506 1215 1506 1216 1505 1217 1505 1218 1505 1219 1505 1220 1505 1221 1504 1222 1504 1223 1504 1224 1504 1225 1504 1226 1504 1227 1503 1228 1503 1229 1503 1230 1503 1231 1503 1232 1503 1233 1503 1234 1503 1235 1503 1236 1503 1237 1503 1238 1503 1239 1503 1240 1502 1241 1502 1242 1502 1243 1502 1244 1502 1245 1502 1246 1502 1247 1502 1248 1502 1249 1502 1250 1502 1251 1502 1252 1502 1253 1503 1254 1503 1255 1503 1256 1503 1257 1503 1258 1503 1259 1503 1260 1504 1261 1504 1262 1504 1263 1504 1264 1504 1265 1504 1266 1505 1267 1505 1268 1505 1269 1505 1270 1506 1271 1506 1272 1506 1273 1506 1274 1506 1275 1507 1276 1507 1277 1507 1278 1508 1279 1508 1280 1508 1281 1509 1282 1509 1283 1509 1284 1510 1285 1510 1286 1510 1287 1511 1288 1511 1289 1511 1290 1512 1291 1512 1292 1512 1293 1512 1294 1512 1295 1513 1296 1513 1297 1514 1298 1514 1299 1515 1300 1516 1301 1516 1302 1517 1303 1517 1304 1518 1305 1519 1306 1519 1307 1520 1308 1521 1309 1521 1310 1522 1311 1523 1312 1524 1313 1524 1314 1525 1315 1525 1316 1526 1317 1527 1318 1527 1319 1528 1320 1529 1321 1529 1322 1530 1323 1531 1324 1531 1325 1532 1326 1533 1327 1533 1328 1534 1329 1535 1330 1535 1331 1536 1332 1536 1333 1537 1334 1538 1335 1539 1336 1540 1337 1540 1338 1541 1339 1541 1340 1542 1341 1543 1342 1543 1343 1544 1344 1544 1345 1545 1346 1546 1347 1546 1348 1547 1349 1548 1350 1548 1351 1549 1352 1550 1353 1550 1354 1551 1355 1552 1356 1552 1357 1553 1358 1554 1359 1554 1360 1555 1361 1555 1362 1556 1363 1557 1364 1557 1365 1558 1366 1559 1367 1559 1368 1560 1369 1561 1370 1561 1371 1561 1372 1562 1373 1563 1374 1564 1375 1564 1376 1565 1377 1565 1378 1566 1379 1567 1380 1568 1381 1569 1382 1569 1383 1570 1384 1571 1385 1571 1386 1572 1387 1573 1388 1574 1389 1574 1390 1575 1391 1576 1392 1576 1393 1577 1394 1578 1395 1579 1396 1579 1397 1580 1398 1581 1399 1582 1400 1582 1401 1583 1402 1584 1403 1585 1404 1585 1405 1586 1406 1586 1407 1587 1408 1588 1409 1589 1410 1590 1411 1591 1412 1591 1413 1592 1414 1593 1415 1593 1416 1594 1417 1595 1418 1596 1419 1596 1420 1597 1421 1597 1422 1598 1423 1599 1424 1600 1425 1601 1426 1601 1427 1602 1428 1603 1429 1603 1430 1604 1431 1605 1432 1605 1433 1606 1434 1606 1435 1607 1436 1608 1437 1608 1438 1609 1439 1610 1440 1611 1441 1611 1442 1611 1443 1611 1444 1611 1445 1611 1446 1612 1447 1612 1448 1612 1449 1612 1450 1612 1451 1613 1452 1613 1453 1613 1454 1613 1455 1614 1456 1614 1457 1614 1458 1614 1459 1614 1460 1615 1461 1615 1462 1615 1463 1615 1464 1616 1465 1616 1466 1616 1467 1616 1468 1617 1469 1617 1470 1617 1471 1617 1472 1617 1473 1617 1474 1618 1475 1618 1476 1618 1477 1618 1478 1618 1479 1618 1480 1619 1481 1619 1482 1619 1483 1619 1484 1619 1485 1620 1486 1620 1487 1620 1488 1620 1489 1620 1490 1621 1491 1621 1492 1621 1493 1621 1494 1621 1495 1621 1496 1621 1497 1621 1498 1621 1499 1621 1500 1622 1501 1622 1502 1622 1503 1622 1504 1622 1505 1622 1506 1622 1507 1622 1508 1622 1509 1622 1510 1622 1511 1622 1512 1622 1513 1622 1514 1622 1515 1622 1516 1622 1517 1622 1518 1622 1519 1622 1520 1622 1521 1622 1522 1621 1523 1621 1524 1621 1525 1621 1526 1621 1527 1621 1528 1620 1529 1620 1530 1620 1531 1620 1532 1620 1533 1619 1534 1619 1535 1619 1536 1619 1537 1619 1538 1618 1539 1618 1540 1618 1541 1618 1542 1617 1543 1617 1544 1617 1545 1617 1546 1616 1547 1616 1548 1616 1549 1615 1550 1615 1551 1615 1552 1615 1553 1614 1554 1614 1555 1614 1556 1613 1557 1613 1558 1613 1559 1613 1560 1612 1561 1612 1562 1612 1563 1611 1564 1611 1565 1610 1566 1610 1567 1610 1568 1610 1569 1609 1570 1609 1571 1608 1572 1608 1573 1608 1574 1607 1575 1607 1576 1606 1577 1606 1578 1606 1579 1605 1580 1605 1581 1604 1582 1604 1583 1604 1584 1603 1585 1603 1586 1602 1587 1602 1588 1602 1589 1601 1590 1601 1591 1600 1592 1600 1593 1599 1594 1599 1595 1599 1596 1598 1597 1597 1598 1597 1599 1597 1600 1596 1601 1596 1602 1596 1603 1595 1604 1595 1605 1594 1606 1594 1607 1593 1608 1593 1609 1592 1610 1592 1611 1592 1612 1591 1613 1591 1614 1590 1615 1589 1616 1589 1617 1589 1618 1588 1619 1588 1620 1587 1621 1587 1622 1587 1623 1586 1624 1586 1625 1585 1626 1584 1627 1584 1628 1584 1629 1583 1630 1583 1631 1582 1632 1582 1633 1581 1634 1581 1635 1581 1636 1580 1637 1579 1638 1579 1639 1579 1640 1578 1641 1578 1642 1577 1643 1577 1644 1576 1645 1576 1646 1576 1647 1575 1648 1574 1649 1574 1650 1574 1651 1573 1652 1573 1653 1572 1654 1572 1655 1571 1656 1571 1657 1571 1658 1570 1659 1569 1660 1569 1661 1569 1662 1568 1663 1568 1664 1567 1665 1567 1666 1566 1667 1566 1668 1566 1669 1565 1670 1564 1671 1564 1672 1564 1673 1563 1674 1563 1675 1562 1676 1562 1677 1562 1678 1561 1679 1561 1680 1560 1681 1560 1682 1559 1683 1559 1684 1558 1685 1558 1686 1558 1687 1557 1688 1557 1689 1556 1690 1556 1691 1555 1692 1555 1693 1555 1694 1554 1695 1554 1696 1553 1697 1553 1698 1552 1699 1552 1700 1552 1701 1551 1702 1550 1703 1550 1704 1550 1705 1549 1706 1549 1707 1548 1708 1548 1709 1547 1710 1547 1711 1547 1712 1546 1713 1546 1714 1546 1715 1545 1716 1544 1717 1544 1718 1544 1719 1543 1720 1543 1721 1543 1722 1542 1723 1542 1724 1541 1725 1541 1726 1540 1727 1541 1728 1541 1729 1542 1729 1543 1730 1544 1731 1545 1732 1546 1732 1547 1733 1548 1734 1549 1735 1550 1735 1551 1736 1552 1737 1553 1738 1554 1739 1555 1740 1556 1741 1557 1741 1558 1742 1559 1743 1560 1743 1561 1744 1562 1745 1563 1745 1564 1746 1565 1747 1566 1748 1567 1748 1568 1749 1569 1750 1570 1751 1571 1751 1572 1752 1573 1753 1574 1754 1575 1754 1576 1755 1577 1756 1578 1757 1579 1757 1580 1758 1581 1759 1582 1759 1583 1760 1584 1761 1585 1762 1586 1762 1587 1763 1588 1764 1589 1764 1590 1765 1591 1766 1592 1766 1593 1767 1594 1768 1595 1768 1596 1769 1597 1770 1598 1771 1599 1771 1600 1772 1601 1773 1602 1773 1603 1774 1604 1775 1605 1776 1606 1776 1607 1777 1608 1777 1609 1777 1610 1776 1611 1775 1612 1774 1613 1773 1614 1772 1614 1771 1615 1770 1616 1770 1617 1769 1617 1768 1618 1767 1619 1766 1620 1765 1621 1764 1622 1763 1623 1762 1624 1761 1625 1760 1625 1759 1626 1758 1627 1757 1628 1756 1628 1755 1629 1754 1630 1753 1631 1752 1632 1751 1632 1750 1633 1749 1634 1748 1634 1747 1635 1746 1636 1745 1636 1744 1637 1743 1638 1742 1638 1741 1639 1740 1640 1739 1640 1738 1641 1737 1641 1736 1642 1735 1643 1734 1643 1733 1644 1732 1644 1731 1645 1730 1645 1729 1646 1728 1646 1727 1647 1726 1648 1725 1648 1724 1649 1723 1649 1722 1650 1721 1650 1720 1650 1719 1651 1718 1652 1717 1652 1716 1652 1715 1653 1714 1654 1713 1654 1712 1655 1711 1655 1710 1656 1709 1656 1708 1656 1707 1657 1706 1658 1705 1658 1704 1659 1703 1660 1702 1660 1701 1661 1700 1662 1699 1662 1698 1663 1697 1663 1696 1664 1695 1665 1694 1666 1693 1666 1692 1667 1691 1667 1690 1668 1689 1669 1688 1669 1687 1670 1686 1671 1685 1671 1684 1672 1683 1673 1682 1674 1681 1674 1680 1675 1679 1675 1678 1675 1677 1676 1676 1676 1675 1677 1674 1677 1673 1677 1672 1678 1671 1678 1670 1678 1669 1679 1668 1679 1667 1679 1666 1680 1665 1680 1664 1681 1663 1681 1662 1681 1661 1682 1660 1682 1659 1683 1658 1683 1657 1683 1656 1684 1655 1684 1654 1684 1653 1685 1652 1685 1651 1686 1650 1686 1649 1686 1648 1687 1647 1687 1646 1688 1645 1688 1644 1689 1643 1689 1642 1690 1641 1690 1640 1691 1639 1691 1638 1692 1637 1692 1636 1692 1635 1693 1634 1693 1633 1694 1632 1694 1631 1695 1630 1695 1629 1695 1628 1696 1627 1696 1626 1697 1625 1697 1624 1697 1623 1698 1622 1698 1621 1699 1620 1699 1619 1699 1618 1700 1617 1700 1616 1700 1615 1701 1614 1701 1613 1702 1612 1702 1611 1703 1610 1703 1609 1703 1608 1704 1607 1704 1606 1704 1605 1705 1604 1705 1603 1705 1602 1706 1601 1706 1600 1706 1599 1707 1598 1707 1597 1707 1596 1708 1595 1708 1594 1708 1593 1709 1592 1709 1591 1709 1590 1710 1589 1710 1588 1710 1587 1710 1586 1711 1585 1711 1584 1711 1583 1712 1582 1712 1581 1712 1580 1712 1579 1713 1578 1713 1577 1713 1576 1713 1575 1714 1574 1714 1573 1714 1572 1714 1571 1714 1570 1715 1569 1715 1568 1715 1567 1715 1566 1715 1565 1716 1564 1716 1563 1716 1562 1716 1561 1716 1560 1716 1559 1716 1558 1716 1557 1717 1556 1717 1555 1717 1554 1717 1553 1717 1552 1717 1551 1717 1550 1717 1549 1717 1548 1717 1547 1717 1546 1717 1545 1718 1544 1718 1543 1718 1542 1718 1541 1718 1540 1718 1539 1718 1538 1718 1537 1718 1536 1718 1535 1718 1534 1718 1533 1718 1532 1718 1531 1718 1530 1718 1529 1718 1528 1718 1527 1718 1526 1718 1525 1718 1524 1718 1523 1718 1522 1718 1521 1718 1520 1718 1519 1718 1518 1718 1517 1718 1516 1718 1515 1717 1514 1717 1513 1717 1512 1717 1511 1717 1510 1717 1509 1717 1508 1717 1507 1717 1506 1716 1505 1716 1504 1716 1503 1716 1502 1716 1501 1716 1500 1716 1499 1715 1498 1715 1497 1715 1496 1715 1495 1715 1494 1714 1493 1714 1492 1714 1491 1714 1490 1714 1489 1713 1488 1713 1487 1713 1486 1713 1485 1713 1484 1712 1483 1712 1482 1712 1481 1712 1480 1712 1479 1711 1478 1711 1477 1711 1476 1711 1475 1710 1474 1710 1473 1710 1472 1710 1471 1710 1470 1709 1469 1709 1468 1709 1467 1709 1466 1708 1465 1708 1464 1708 1463 1708 1462 1708 1461 1707 1460 1707 1459 1707 1458 1707 1457 1707 1456 1706 1455 1706 1454 1706 1453 1706 1452 1705 1451 1705 1450 1705 1449 1705 1448 1705 1447 1704 1446 1704 1445 1704 1444 1704 1443 1703 1442 1703 1441 1703 1440 1702 1439 1702 1438 1702 1437 1701 1436 1701 1435 1700 1434 1700 1433 1699 1432 1699 1431 1698 1430 1698 1429 1697 1428 1697 1427 1696 1426 1696 1425 1695 1424 1694 1423 1694 1422 1693 1421 1693 1420 1692 1419 1691 1418 1691 1417 1691 1416 1690 1415 1690 1414 1689 1413 1689 1412 1688 1411 1688 1410 1687 1409 1687 1408 1686 1407 1685 1406 1685 1405 1684 1404 1684 1403 1683 1402 1683 1401 1682 1400 1682 1399 1681 1398 1680 1397 1680 1396 1679 1395 1679 1394 1678 1393 1678 1392 1677 1391 1677 1390 1676 1389 1675 1388 1675 1387 1674 1386 1674 1385 1673 1384 1673 1383 1672 1382 1672 1381 1671 1380 1671 1379 1670 1378 1670 1377 1669 1376 1668 1375 1668 1374 1667 1373 1667 1372 1666 1371 1665 1370 1665 1369 1664 1368 1664 1367 1663 1366 1662 1365 1662 1364 1661 1363 1661 1362 1660 1361 1659 1360 1659 1359 1658 1358 1658 1357 1657 1356 1656 1355 1656 1354 1655 1353 1654 1352 1654 1351 1653 1350 1653 1349 1652 1348 1651 1347 1651 1346 1650 1345 1649 1344 1649 1343 1648 1342 1648 1341 1647 1340 1646 1339 1646 1338 1645 1337 1645 1336 1644 1335 1643 1334 1642 1333 1642 1332 1641 1331 1641 1330 1640 1329 1639 1328 1639 1327 1638 1326 1637 1325 1637 1324 1636 1323 1636 1322 1635 1321 1634 1320 1634 1319 1633 1318 1632 1317 1631 1316 1631 1315 1630 1314 1629 1313 1629 1312 1628 1311 1627 1310 1627 1309 1626 1308 1625 1307 1625 1306 1624 1305 1623 1304 1622 1303 1622 1302 1621 1301 1620 1300 1620 1299 1619 1298 1618 1297 1617 1296 1617 1295 1616 1294 1615 1293 1614 1292 1614 1291 1613 1290 1612 1289 1611 1288 1611 1287 1610 1286 1610 1285 1609 1284 1608 1283 1607 1282 1606 1281 1606 1280 1605 1279 1605 1278 1605 1277 1605 1276 1605 1275 1605 1274 1604 1273 1604 1272 1604 1271 1604 1270 1604 1269 1603 1268 1603 1267 1603 1266 1603 1265 1603 1264 1602 1263 1602 1262 1602 1261 1602 1260 1602 1259 1601 1258 1601 1257 1601 1256 1601 1255 1601 1254 1601 1253 1601 1252 1600 1251 1600 1250 1600 1249 1600 1248 1600 1247 1599 1246 1599 1245 1599 1244 1599 1243 1599 1242 1599 1241 1598 1240 1598 1239 1598 1238 1598 1237 1598 1236 1598 1235 1598 1234 1598 1233 1597 1232 1597 1231 1597 1230 1597 1229 1597 1228 1597 1227 1597 1226 1597 1225 1597 1224 1598 1223 1598 1222 1598 1221 1599 1220 1599 1219 1599 1218 1600 1217 1600 1216 1600 1215 1601 1214 1601 1213 1601 1212 1601 1211 1602 1210 1602 1209 1602 1208 1603 1207 1603 1206 1603 1205 1603 1204 1604 1203 1604 1202 1604 1201 1605 1200 1605 1199 1605 1198 1606 1197 1606 1196 1606 1195 1607 1194 1607 1193 1607 1192 1607 1191 1608 1190 1608 1189 1608 1188 1609 1187 1609 1186 1609 1185 1610 1184 1610 1183 1610 1182 1611 1181 1611 1180 1611 1179 1612 1178 1612 1177 1612 1176 1613 1175 1613 1174 1613 1173 1614 1172 1614 1171 1614 1170 1615 1169 1615 1168 1615 1167 1616 1166 1616 1165 1616 1164 1617 1163 1617 1162 1617 1161 1618 1160 1618 1159 1618 1158 1619 1157 1619 1156 1620 1155 1620 1154 1620 1153 1621 1152 1621 1151 1621 1150 1622 1149 1622 1148 1622 1147 1623 1146 1623 1145 1623 1144 1624 1143 1624 1142 1625 1141 1625 1140 1626 1139 1626 1138 1627 1137 1628 1136 1628 1135 1629 1134 1630 1133 1630 1132 1630 1131 1631 1130 1632 1129 1632 1128 1633 1127 1633 1126 1634 1125 1634 1124 1635 1123 1635 1122 1636 1121 1636 1120 1637 1119 1637 1118 1638 1117 1639 1116 1639 1115 1640 1114 1640 1113 1641 1112 1641 1111 1641 1110 1642 1109 1643 1108 1643 1107 1644 1106 1644 1105 1645 1104 1646 1103 1646 1102 1647 1101 1647 1100 1648 1099 1649 1098 1649 1097 1650 1096 1650 1095 1651 1094 1652 1093 1652 1092 1653 1091 1653 1090 1654 1089 1655 1088 1655 1087 1656 1086 1657 1085 1657 1084 1658 1083 1659 1082 1659 1081 1660 1080 1660 1079 1661 1078 1662 1077 1663 1076 1663 1075 1664 1074 1665 1073 1665 1072 1666 1071 1667 1070 1668 1069 1668 1068 1669 1067 1669 1066 1670 1065 1671 1064 1672 1063 1673 1062 1673 1061 1674 1060 1675 1059 1675 1058 1676 1057 1677 1056 1677 1055 1677 1054 1678 1053 1679 1052 1679 1051 1680 1050 1680 1049 1681 1048 1681 1047 1682 1046 1682 1045 1683 1044 1683 1043 1684 1042 1685 1041 1685 1040 1685 1039 1685 1038 1684 1037 1683 1036 1682 1035 1681 1034 1680 1033 1679 1032 1678 1031 1677 1030 1676 1029 1675 1028 1674 1027 1673 1026 1672 1025 1671 1024 1670 1023 1669 1022 1668 1021 1667 1020 1666 1019 1665 1018 1664 1017 1663 1016 1662 1015 1661 1014 1660 1013 1659 1013 1658 1012 1657 1011 1656 1010 1655 1009 1654 1008 1653 1007 1652 1006 1651 1006 1650 1005 1649 1004 1648 1003 1647 1003 1646 1002 1645 1001 1644 1000 1643 1000 1642 999 1641 998 1640 997 1639 997 "/></svg>